<svg width="86" height="86" viewBox="0 0 86 86" fill="none" xmlns="http://www.w3.org/2000/svg">
<path d="M68.5709 21.5126C67.5534 17.5163 61.7501 16.6081 59.8332 20.4598C56.9499 25.8877 51.5719 29.5107 48.6133 31.1906C47.5405 31.8112 46.3172 32.1235 45.0782 32.0931L37.0802 31.9929C35.4682 31.9895 33.8799 32.3812 32.4544 33.1336L20.6077 39.527C19.7598 39.9824 19.0275 40.6259 18.4668 41.4082C17.9062 42.1905 17.5321 43.0908 17.3734 44.0401C17.207 44.9898 17.2631 45.9652 17.5372 46.8896C17.8112 47.814 18.2958 48.6623 18.9529 49.3679L23.1901 53.9938L24.9828 55.9368C24.1896 56.2006 23.4992 56.7066 23.0089 57.3836C22.5186 58.0606 22.2531 58.8744 22.2499 59.7102V60.8761C22.4864 60.8407 22.7253 60.8239 22.9644 60.826H37.7571V59.7102C37.754 58.7065 37.3708 57.7411 36.6847 57.0085C35.9985 56.2758 35.0604 55.8302 34.059 55.7613C34.2765 54.9366 34.2548 54.0669 33.9963 53.2541C35.6756 53.3036 37.2695 54.0055 38.4397 55.2109C39.61 56.4163 40.2645 58.0302 40.2644 59.7102V60.826H43.8246C43.7449 59.789 43.8946 58.7471 44.2631 57.7745C44.6315 56.8019 45.2096 55.9223 45.9563 55.1983C46.7031 54.4743 47.6001 53.9237 48.5837 53.5855C49.5672 53.2473 50.6132 53.1299 51.6472 53.2416L51.6472 43.6013C51.6513 42.9338 51.8306 42.2791 52.1672 41.7027C52.5038 41.1263 52.9859 40.6484 53.5652 40.3168C59.758 36.6312 65.2363 29.26 67.9441 25.1857C68.3027 24.6528 68.544 24.0497 68.6521 23.4165C68.7601 22.7833 68.7325 22.1344 68.5709 21.5126ZM32.2856 50.0341C32.2856 50.1022 32.2656 50.1689 32.228 50.2258C32.1903 50.2826 32.1368 50.3272 32.0741 50.3539C32.0114 50.3806 31.9421 50.3882 31.8751 50.3758C31.808 50.3635 31.7461 50.3317 31.697 50.2844L27.7902 46.5232C27.7167 46.4524 27.6604 46.3656 27.6259 46.2696C27.5914 46.1735 27.5795 46.0708 27.5911 45.9694C27.6028 45.868 27.6376 45.7707 27.693 45.685C27.7483 45.5992 27.8227 45.5274 27.9104 45.4751L31.2818 43.4631C31.3826 43.403 31.4974 43.3706 31.6148 43.3694C31.7321 43.3681 31.8476 43.3979 31.9497 43.4559C32.0517 43.5138 32.1365 43.5978 32.1956 43.6992C32.2546 43.8006 32.2857 43.9158 32.2857 44.0331L32.2856 50.0341Z" fill="white"/>
<path d="M63.3307 64.0103C62.6798 63.5685 61.9111 63.3327 61.1244 63.3334H22.9645C21.9276 63.3347 20.9335 63.7473 20.2003 64.4805C19.4671 65.2137 19.0546 66.2077 19.0532 67.2446V76.4838C19.0545 77.5207 19.467 78.5147 20.2003 79.248C20.9335 79.9812 21.9275 80.3937 22.9645 80.395H61.1244C62.1613 80.3937 63.1554 79.9812 63.8886 79.2479C64.6218 78.5147 65.0343 77.5207 65.0357 76.4838V67.2446C65.0346 66.6078 64.8789 65.9807 64.5819 65.4173C64.2849 64.8539 63.8555 64.3711 63.3307 64.0103ZM26.1737 72.8983C26.1715 73.1413 26.099 73.3784 25.9648 73.581C25.8306 73.7835 25.6406 73.9429 25.4178 74.0397C25.195 74.1365 24.9489 74.1667 24.7092 74.1265C24.4696 74.0864 24.2468 73.9776 24.0677 73.8135C23.4164 73.341 23.7373 71.7023 23.6664 70.8174C23.6664 70.4849 23.7985 70.166 24.0336 69.9309C24.2687 69.6958 24.5876 69.5637 24.9201 69.5637C25.2526 69.5637 25.5714 69.6958 25.8065 69.9309C26.0416 70.166 26.1737 70.4849 26.1737 70.8174V72.8983ZM30.4109 74.8416C30.406 75.1708 30.2717 75.4849 30.0372 75.7159C29.8026 75.947 29.4865 76.0765 29.1573 76.0765C28.828 76.0765 28.512 75.947 28.2774 75.7159C28.0428 75.4848 27.9086 75.1707 27.9037 74.8415C27.954 74.6054 27.7739 68.353 28.029 68.3479C28.1517 68.0937 28.3566 67.8884 28.6106 67.7652C28.8645 67.642 29.1526 67.6082 29.4282 67.6691C29.7038 67.73 29.9508 67.8822 30.1291 68.1009C30.3075 68.3197 30.4068 68.5922 30.4109 68.8744V74.8416ZM34.6481 72.8983C34.644 73.2281 34.5101 73.5429 34.2754 73.7746C34.0407 74.0063 33.7243 74.1362 33.3945 74.1362C33.0647 74.1362 32.7483 74.0062 32.5136 73.7745C32.279 73.5428 32.1451 73.228 32.1409 72.8983V70.8174C32.1404 70.6524 32.1724 70.489 32.2352 70.3364C32.2979 70.1838 32.3902 70.0452 32.5066 69.9283C32.6231 69.8115 32.7615 69.7188 32.9138 69.6555C33.0662 69.5923 33.2296 69.5597 33.3945 69.5597C33.5595 69.5597 33.7229 69.5923 33.8752 69.6555C34.0276 69.7188 34.166 69.8115 34.2824 69.9283C34.3989 70.0452 34.4911 70.1838 34.5539 70.3364C34.6167 70.489 34.6487 70.6524 34.6481 70.8174V72.8983ZM45.4292 75.3806C40.6876 79.7209 34.1443 72.9482 38.6347 68.3477C39.5691 67.4561 40.8184 66.9704 42.1096 66.9967C43.4009 67.0229 44.6293 67.559 45.5267 68.4879C46.4241 69.4167 46.9175 70.6629 46.8992 71.9543C46.881 73.2457 46.3525 74.4775 45.4292 75.3806ZM51.948 72.8984C51.9437 73.228 51.8097 73.5427 51.5751 73.7743C51.3404 74.0058 51.024 74.1357 50.6944 74.1357C50.3647 74.1357 50.0483 74.0058 49.8137 73.7742C49.579 73.5426 49.4451 73.2279 49.4408 72.8983V70.8174C49.4408 70.4849 49.5729 70.1661 49.808 69.931C50.0431 69.6959 50.3619 69.5638 50.6944 69.5638C51.0269 69.5638 51.3457 69.6959 51.5808 69.931C51.8159 70.1661 51.948 70.4849 51.948 70.8174V72.8984ZM56.1852 74.8416C56.1804 75.1709 56.0462 75.4851 55.8116 75.7162C55.577 75.9474 55.2609 76.077 54.9316 76.077C54.6022 76.077 54.2861 75.9474 54.0515 75.7162C53.817 75.485 53.6828 75.1708 53.678 74.8415C53.7283 74.6054 53.5482 68.353 53.8033 68.3479C53.905 68.1349 54.065 67.9552 54.2647 67.8293C54.4643 67.7035 54.6955 67.6367 54.9316 67.6367C55.1676 67.6367 55.3988 67.7035 55.5984 67.8294C55.7981 67.9552 55.958 68.135 56.0598 68.348C56.3146 68.3279 56.1349 74.6261 56.1852 74.8416ZM60.4224 72.8984C60.418 73.2279 60.284 73.5425 60.0493 73.7739C59.8147 74.0054 59.4984 74.1352 59.1688 74.1352C58.8392 74.1352 58.5229 74.0054 58.2883 73.7739C58.0537 73.5424 57.9196 73.2278 57.9152 72.8983V70.8174C57.9182 70.5748 57.9912 70.3382 58.1255 70.1362C58.2598 69.9341 58.4496 69.7752 58.6722 69.6785C58.8947 69.5818 59.1404 69.5515 59.3798 69.5912C59.6191 69.6309 59.8419 69.7389 60.0213 69.9023C60.6725 70.3748 60.3516 72.0134 60.4224 72.8984Z" fill="white"/>
<path d="M61.8364 60.149C61.8349 58.9824 61.3708 57.8641 60.546 57.0392C59.7211 56.2144 58.6028 55.7503 57.4362 55.7488H51.6445C50.9989 55.6397 50.3372 55.671 49.7047 55.8406C49.0722 56.0102 48.4837 56.3142 47.9793 56.7318C47.4748 57.1494 47.0663 57.6708 46.7816 58.2605C46.4968 58.8502 46.3425 59.4943 46.3292 60.1491V60.826H61.1219C61.361 60.8239 61.5999 60.8407 61.8364 60.8761L61.8364 60.149Z" fill="white"/>
<path d="M42.0418 69.476C41.4147 69.4831 40.8158 69.7372 40.375 70.1831C39.9341 70.629 39.6868 71.2308 39.6868 71.8578C39.6869 72.4849 39.9341 73.0867 40.375 73.5326C40.8159 73.9785 41.4148 74.2326 42.0418 74.2397C42.6689 74.2325 43.2678 73.9784 43.7087 73.5325C44.1495 73.0866 44.3968 72.4848 44.3968 71.8578C44.3968 71.2307 44.1495 70.6289 43.7086 70.183C43.2677 69.7371 42.6688 69.4831 42.0418 69.476Z" fill="white"/>
<path d="M29.8567 24.6116C30.2581 24.6395 30.661 24.5847 31.0404 24.4508C31.4198 24.3168 31.7677 24.1064 32.0626 23.8327C32.3575 23.5589 32.5932 23.2276 32.7549 22.8592C32.9167 22.4907 33.0012 22.093 33.0032 21.6907V19.2211C33.0029 18.7105 32.8684 18.2089 32.6132 17.7667C32.3579 17.3244 31.991 16.9571 31.549 16.7013C32.7422 8.63142 43.2511 5.19025 48.9618 11.123C50.477 12.6359 51.477 14.5877 51.8199 16.7013C51.3806 16.959 51.0164 17.3271 50.7635 17.7692C50.5106 18.2112 50.3778 18.7118 50.3783 19.2211V21.6907C50.4104 22.4738 50.744 23.2141 51.3095 23.7568C51.8749 24.2996 52.6283 24.6026 53.4121 24.6026C54.1958 24.6026 54.9492 24.2995 55.5146 23.7568C56.08 23.214 56.4137 22.4737 56.4457 21.6906V19.2211C56.4449 18.5866 56.2378 17.9695 55.8557 17.463C55.4735 16.9565 54.937 16.588 54.3271 16.413C53.854 13.4016 52.3209 10.6581 50.0041 8.67692C47.6873 6.69572 44.7391 5.60706 41.6907 5.60706C38.6424 5.60706 35.6942 6.69572 33.3774 8.67692C31.0606 10.6581 29.5275 13.4016 29.0543 16.413C28.4444 16.588 27.908 16.9565 27.5258 17.463C27.1437 17.9695 26.9366 18.5866 26.9357 19.2211V21.6907C26.9365 22.4651 27.2445 23.2076 27.7921 23.7552C28.3397 24.3029 29.0823 24.6108 29.8567 24.6116Z" fill="white"/>
<path d="M41.6531 11.9858C34.9169 12.3423 32.3753 16.5572 34.4951 24.3213C36.5351 32.765 46.6604 33.0174 48.8363 24.5218C49.3263 22.8185 49.5712 21.0542 49.5634 19.2818C50.0766 13.9141 44.6871 11.9081 41.6531 11.9858Z" fill="white"/>
</svg>
