<svg width="71" height="68" viewBox="0 0 71 68" fill="none" xmlns="http://www.w3.org/2000/svg">
<path d="M20.4769 48.4578L28.7394 40.1953L25.8419 37.2977L17.5794 45.5601C18.469 46.4498 19.6306 47.6113 20.4769 48.4578Z" fill="white"/>
<path d="M4.20605 62.7975C3.13851 63.865 3.13851 65.5926 4.20605 66.66C5.27358 67.7275 7.00114 67.7275 8.06854 66.66L21.4423 53.2862L17.5798 49.4237L4.20605 62.7975Z" fill="white"/>
<path d="M59.8474 18.7454C61.9814 16.6114 61.9815 13.153 59.8474 11.0186C57.7171 8.88971 54.2508 8.88971 52.1205 11.0191L51.1551 11.9844L58.8817 19.7111L59.8474 18.7454Z" fill="white"/>
<path d="M43.4787 25.456C44.0122 24.9229 44.8766 24.9229 45.4102 25.456C45.9435 25.9893 45.9435 26.854 45.4102 27.3875L42.2592 30.5385L45.1567 33.436L56.9506 21.6423L49.2239 13.9156L37.4302 25.7095L40.3278 28.607L43.4787 25.456Z" fill="white"/>
<path d="M11.1516 11.0192C9.01698 13.1536 9.01644 16.6095 11.1516 18.7444L12.1173 19.7101L19.8426 11.9848L18.8769 11.0192C16.7425 8.88451 13.2866 8.88396 11.1516 11.0192Z" fill="white"/>
<path d="M22.4084 50.3887C22.8149 50.7953 24.5719 52.5521 25.306 53.2864L33.5684 45.0239L30.6709 42.1263L22.4084 50.3887Z" fill="white"/>
<path d="M53.4182 49.4237L49.5557 53.2862L62.9295 66.66C63.997 67.7275 65.7246 67.7275 66.792 66.66C67.8595 65.5923 67.8595 63.8649 66.792 62.7975L53.4182 49.4237Z" fill="white"/>
<path d="M25.5879 25.4559C26.1213 24.9228 26.9858 24.9228 27.5193 25.4559L50.5213 48.458C50.9606 48.0187 52.6567 46.3225 53.4182 45.561L21.7738 13.9165L14.0486 21.6418L45.693 53.2862L48.5899 50.3892L25.5879 27.3874C25.0546 26.8539 25.0546 25.9892 25.5879 25.4559Z" fill="white"/>
<path d="M65.8112 6.98583L66.9656 5.83144C67.4989 5.29815 67.4989 4.43341 66.9656 3.89999C66.4322 3.36683 65.5677 3.36683 65.0342 3.89999L63.8798 5.05438C63.3465 5.58767 63.3465 6.45241 63.8798 6.98583C64.4133 7.51899 65.2775 7.51912 65.8112 6.98583Z" fill="white"/>
<path d="M60.1011 4.80405C60.8343 5.00057 61.5797 4.56206 61.7736 3.83839L62.1962 2.26147C62.3915 1.53289 61.9591 0.784095 61.2305 0.588942C60.5017 0.393517 59.7533 0.826021 59.558 1.5546L59.1355 3.13153C58.9402 3.86011 59.3727 4.60904 60.1011 4.80405Z" fill="white"/>
<path d="M54.0648 3.83834C54.2592 4.5635 55.0056 5.00038 55.7374 4.804C56.4659 4.60884 56.8983 3.86005 56.703 3.13147L56.2805 1.55454C56.0852 0.826102 55.3359 0.393597 54.608 0.588887C53.8794 0.78404 53.447 1.53283 53.6423 2.26141L54.0648 3.83834Z" fill="white"/>
<path d="M69.3111 14.5852L67.7342 14.1626C67.0053 13.9673 66.257 14.3998 66.0617 15.1283C65.8664 15.8569 66.2988 16.6055 67.0273 16.8008L68.6043 17.2233C69.3375 17.4199 70.0829 16.9813 70.2768 16.2577C70.4721 15.5291 70.0397 14.7804 69.3111 14.5852Z" fill="white"/>
<path d="M66.0617 10.7649C66.256 11.4901 67.0025 11.927 67.7342 11.7306L69.3111 11.308C70.0397 11.1128 70.4721 10.3641 70.2768 9.63552C70.0815 8.90708 69.3327 8.47444 68.6043 8.66987L67.0273 9.0924C66.2988 9.28755 65.8664 10.0363 66.0617 10.7649Z" fill="white"/>
<path d="M5.18696 6.98583C5.72039 7.51899 6.58471 7.51926 7.11841 6.98583C7.6517 6.45254 7.6517 5.58781 7.11841 5.05438L5.96402 3.89999C5.43059 3.36683 4.56613 3.36683 4.03257 3.89999C3.49928 4.43328 3.49928 5.29801 4.03257 5.83144L5.18696 6.98583Z" fill="white"/>
<path d="M9.22434 3.83834C9.38781 4.44851 9.93953 4.85097 10.5426 4.85097C11.4403 4.85097 12.095 3.99867 11.8625 3.13147L11.4401 1.55454C11.245 0.826102 10.4955 0.393597 9.7676 0.588887C9.03902 0.78404 8.60665 1.53283 8.80194 2.26141L9.22434 3.83834Z" fill="white"/>
<path d="M15.2607 4.80405C15.994 5.00057 16.7393 4.56206 16.9333 3.83839L17.3558 2.26147C17.5511 1.53289 17.1187 0.784095 16.3901 0.588942C15.6614 0.393517 14.9129 0.826021 14.7176 1.5546L14.2951 3.13153C14.0998 3.86011 14.5322 4.60904 15.2607 4.80405Z" fill="white"/>
<path d="M4.93648 15.1282C4.74119 14.3996 3.9924 13.9675 3.26396 14.1625L1.68703 14.5851C0.958451 14.7804 0.526083 15.529 0.721373 16.2576C0.915706 16.9828 1.66218 17.4196 2.3939 17.2232L3.97082 16.8007C4.6994 16.6054 5.13177 15.8568 4.93648 15.1282Z" fill="white"/>
<path d="M1.68703 11.3081L3.26396 11.7306C3.99718 11.9272 4.74256 11.4886 4.93648 10.765C5.13177 10.0364 4.6994 9.28775 3.97082 9.09246L2.3939 8.66992C1.66477 8.47436 0.916662 8.907 0.721373 9.63558C0.526083 10.3642 0.958451 11.113 1.68703 11.3081Z" fill="white"/>
</svg>
