<svg width="71" height="70" viewBox="0 0 71 70" fill="none" xmlns="http://www.w3.org/2000/svg">
<g clip-path="url(#clip0_65_744)">
<path d="M21.8292 48.5016C20.0023 47.4537 18.7678 45.485 18.7678 43.2316C18.7678 33.9307 26.3344 26.364 35.6353 26.364H42.5863L42.9136 20.9664H3.52795L6.35695 67.6431C6.42179 68.7115 7.30681 69.5449 8.37737 69.5449H20.7971C19.5236 67.8524 18.7678 65.7492 18.7678 63.4726C18.7678 60.8481 20.4419 58.6074 22.778 57.7614C21.9499 56.4915 21.4666 54.9777 21.4666 53.3521C21.4666 51.7249 21.951 50.2094 22.7807 48.9386C22.1207 48.7899 21.7544 48.6439 21.8292 48.5016Z" fill="white"/>
<path d="M23.2186 16.9188C23.2202 16.9188 23.2218 16.9183 23.2233 16.9183H43.4617C44.5797 16.9183 45.4858 16.0122 45.4858 14.8942C45.4858 13.7762 44.5797 12.8701 43.4617 12.8701H26.9574L32.4135 4.50377H39.4135C40.5315 4.50377 41.4376 3.59767 41.4376 2.47967C41.4376 1.36167 40.5315 0.455566 39.4135 0.455566H31.3171C30.6329 0.455566 29.9951 0.800824 29.6219 1.37379L22.1243 12.8701H2.97967C1.86167 12.8701 0.955566 13.7762 0.955566 14.8942C0.955566 16.0122 1.86167 16.9183 2.97967 16.9183H23.2112C23.2138 16.9183 23.2165 16.9188 23.2186 16.9188Z" fill="white"/>
<path d="M22.8159 43.2316C22.8159 44.3496 23.722 45.2557 24.84 45.2557H68.0208C69.1388 45.2557 70.0449 44.3496 70.0449 43.2316C70.0449 36.163 64.2942 30.4122 57.2256 30.4122H35.6352C28.5666 30.4122 22.8159 36.163 22.8159 43.2316Z" fill="white"/>
<path d="M29.5629 49.304C27.3269 49.304 25.5146 51.1162 25.5146 53.3522C25.5146 55.5882 27.3269 57.4004 29.5629 57.4004H63.2979C65.5339 57.4004 67.3461 55.5882 67.3461 53.3522C67.3461 51.1162 65.5339 49.304 63.2979 49.304H29.5629Z" fill="white"/>
<path d="M68.0208 61.4485H24.84C23.722 61.4485 22.8159 62.3546 22.8159 63.4726C22.8159 66.8208 25.54 69.5449 28.8882 69.5449H63.9726C67.3208 69.5449 70.0449 66.8208 70.0449 63.4726C70.0449 62.3546 69.1388 61.4485 68.0208 61.4485Z" fill="white"/>
</g>
<defs>
<clipPath id="clip0_65_744">
<rect width="69.0894" height="69.0894" fill="white" transform="translate(0.955322 0.455322)"/>
</clipPath>
</defs>
</svg>
