<svg width="71" height="71" viewBox="0 0 71 71" fill="none" xmlns="http://www.w3.org/2000/svg">
<path d="M29.3373 56.6608H12.495C13.0857 60.7784 16.6369 63.9528 20.9161 63.9528C25.1954 63.9528 28.7454 60.7784 29.3373 56.6608Z" fill="white"/>
<path d="M39.1462 16.5544C41.831 16.5544 44.0076 14.922 44.0076 12.9084C44.0076 10.8947 41.831 9.26233 39.1462 9.26233C36.4613 9.26233 34.2848 10.8947 34.2848 12.9084C34.2848 14.922 36.4613 16.5544 39.1462 16.5544Z" fill="white"/>
<path d="M22.1313 54.2305H31.8541V55.4458C31.8541 61.0668 27.5919 65.7058 22.1313 66.3122V70.9585C33.4778 68.3966 41.5769 58.404 41.5769 46.6358V28.2889C39.5643 27.4771 33.0281 25.2372 22.1313 25.0768V54.2305ZM31.8541 31.1389C35.8757 31.1389 39.1462 33.8649 39.1462 37.2157C39.1462 40.5664 35.8757 43.2924 31.8541 43.2924C27.8325 43.2924 24.562 40.5664 24.562 37.2157C24.562 33.8649 27.8325 31.1389 31.8541 31.1389Z" fill="white"/>
<path d="M9.97784 40.8613C12.6627 40.8613 14.8392 39.2289 14.8392 37.2153C14.8392 35.2016 12.6627 33.5692 9.97784 33.5692C7.29297 33.5692 5.11646 35.2016 5.11646 37.2153C5.11646 39.2289 7.29297 40.8613 9.97784 40.8613Z" fill="white"/>
<path d="M9.97789 55.4455V54.2301H19.7007V25.0776C8.7589 25.2356 2.25923 27.4731 0.255127 28.2874V46.6367C0.255127 58.4036 8.35419 68.3974 19.7007 70.9594V66.3131C14.2401 65.7054 9.97789 61.0665 9.97789 55.4455ZM2.68582 37.2153C2.68582 33.8646 5.95631 31.1386 9.97789 31.1386C13.9995 31.1386 17.27 33.8646 17.27 37.2153C17.27 40.566 13.9995 43.292 9.97789 43.292C5.95631 43.292 2.68582 40.566 2.68582 37.2153Z" fill="white"/>
<path d="M31.8541 40.8613C34.5389 40.8613 36.7154 39.2289 36.7154 37.2153C36.7154 35.2016 34.5389 33.5692 31.8541 33.5692C29.1692 33.5692 26.9927 35.2016 26.9927 37.2153C26.9927 39.2289 29.1692 40.8613 31.8541 40.8613Z" fill="white"/>
<path d="M44.0076 45.0213C45.5656 45.7323 47.1918 46.2841 48.869 46.6633V39.6459H44.0076V45.0213Z" fill="white"/>
<path d="M51.2996 0.770752V32.3539H54.9456C58.2963 32.3539 61.0223 35.08 61.0223 38.4307V39.646H51.2996V46.6513C62.646 44.0893 70.7451 34.0955 70.7451 22.3286V3.9817C68.7325 3.16984 62.1963 0.929962 51.2996 0.770752ZM61.0223 18.9851C57.0007 18.9851 53.7303 16.2591 53.7303 12.9084C53.7303 9.5577 57.0007 6.83168 61.0223 6.83168C65.0439 6.83168 68.3144 9.5577 68.3144 12.9084C68.3144 16.2591 65.0439 18.9851 61.0223 18.9851Z" fill="white"/>
<path d="M61.0224 16.5544C63.7073 16.5544 65.8838 14.922 65.8838 12.9084C65.8838 10.8947 63.7073 9.26233 61.0224 9.26233C58.3375 9.26233 56.161 10.8947 56.161 12.9084C56.161 14.922 58.3375 16.5544 61.0224 16.5544Z" fill="white"/>
<path d="M44.0076 35.0203V37.2152H58.3839C57.882 35.8006 56.5305 34.7845 54.9457 34.7845H45.2229C44.8024 34.7845 44.3977 34.8818 44.0076 35.0203Z" fill="white"/>
<path d="M44.0075 32.4901C44.4061 32.4086 44.812 32.3539 45.2228 32.3539H48.8689V0.770752C37.9271 0.928747 31.4274 3.1662 29.4233 3.98048V22.3298C29.4233 22.5801 29.4379 22.8281 29.4452 23.0772C38.4813 24.0471 43.0948 26.2857 43.3366 26.406L44.0075 26.7415V32.4901ZM39.1461 18.9851C35.1245 18.9851 31.854 16.2591 31.854 12.9084C31.854 9.5577 35.1245 6.83168 39.1461 6.83168C43.1677 6.83168 46.4382 9.5577 46.4382 12.9084C46.4382 16.2591 43.1677 18.9851 39.1461 18.9851Z" fill="white"/>
</svg>
