<svg width="25" height="25" viewBox="0 0 25 25" fill="none" xmlns="http://www.w3.org/2000/svg">
<path fill-rule="evenodd" clip-rule="evenodd" d="M7.59999 0.287109C5.69044 0.287109 3.85909 1.04568 2.50883 2.39594C1.15856 3.7462 0.399994 5.57755 0.399994 7.48711L0.399994 17.0871C0.399994 18.9967 1.15856 20.828 2.50883 22.1783C3.85909 23.5285 5.69044 24.2871 7.59999 24.2871H17.2C19.1096 24.2871 20.9409 23.5285 22.2912 22.1783C23.6414 20.828 24.4 18.9967 24.4 17.0871V7.48711C24.4 5.57755 23.6414 3.7462 22.2912 2.39594C20.9409 1.04568 19.1096 0.287109 17.2 0.287109L7.59999 0.287109ZM6.79999 12.2871C6.79999 10.8019 7.38999 9.37752 8.4402 8.32731C9.4904 7.27711 10.9148 6.68711 12.4 6.68711C13.8852 6.68711 15.3096 7.27711 16.3598 8.32731C17.41 9.37752 18 10.8019 18 12.2871C18 13.7723 17.41 15.1967 16.3598 16.2469C15.3096 17.2971 13.8852 17.8871 12.4 17.8871C10.9148 17.8871 9.4904 17.2971 8.4402 16.2469C7.38999 15.1967 6.79999 13.7723 6.79999 12.2871ZM18 6.68711H19.6V5.08711H18V6.68711Z" fill="white"/>
</svg>
